# xmcd
# Copyright (C) 1995-1998 Ti Kan
#
# Track frame offsets:
#       150
#       16934
#       36160
#       50852
#       64352
#       78352
#       92777
#       103403
#
# Disc length: 1546 seconds
#
# Revision: 0
# Processed by: cddbd v1.5.2PL0 Copyright (c) Steve Scherf et al.
# Submitted via: CD-Transfer v1.0
#
DISCID=6c060808
DTITLE=Senderos - Banda Latina
DYEAR=09
DGENRE=
TTITLE0=El Quarto De Tula
TTITLE1=Aqua De Beber
TTITLE2=Corazon De Melon
TTITLE3=Solamente Una Vez
TTITLE4=Cachita
TTITLE5=Recado Bossa Nova
TTITLE6=O Paato
TTITLE7=La Collegiala
EXTD=
EXTT0=
EXTT1=
EXTT2=
EXTT3=
EXTT4=
EXTT5=
EXTT6=
EXTT7=
PLAYORDER=
